<svg width="12" height="12" viewBox="0 0 12 12" fill="none" xmlns="http://www.w3.org/2000/svg">
<path d="M0 1.65C0 1.21239 0.173839 0.792709 0.483274 0.483274C0.792709 0.173839 1.21239 0 1.65 0H9.15C9.58761 0 10.0073 0.173839 10.3167 0.483274C10.6262 0.792709 10.8 1.21239 10.8 1.65V5.4132C10.5194 5.23354 10.2169 5.09057 9.9 4.9878V1.65C9.9 1.236 9.564 0.9 9.15 0.9H1.65C1.236 0.9 0.9 1.236 0.9 1.65V9.15C0.9 9.564 1.236 9.9 1.65 9.9H4.9878C5.0916 10.2204 5.235 10.5222 5.4132 10.8H1.65C1.21239 10.8 0.792709 10.6262 0.483274 10.3167C0.173839 10.0073 0 9.58761 0 9.15V1.65ZM12 8.7C12 7.82479 11.6523 6.98542 11.0335 6.36655C10.4146 5.74768 9.57521 5.4 8.7 5.4C7.82479 5.4 6.98542 5.74768 6.36655 6.36655C5.74768 6.98542 5.4 7.82479 5.4 8.7C5.4 9.57521 5.74768 10.4146 6.36655 11.0335C6.98542 11.6523 7.82479 12 8.7 12C9.57521 12 10.4146 11.6523 11.0335 11.0335C11.6523 10.4146 12 9.57521 12 8.7ZM9 9L9.0006 10.5018C9.0006 10.5814 8.96899 10.6577 8.91273 10.7139C8.85647 10.7702 8.78016 10.8018 8.7006 10.8018C8.62103 10.8018 8.54473 10.7702 8.48847 10.7139C8.43221 10.6577 8.4006 10.5814 8.4006 10.5018V9H6.8976C6.81804 9 6.74173 8.96839 6.68547 8.91213C6.62921 8.85587 6.5976 8.77956 6.5976 8.7C6.5976 8.62044 6.62921 8.54413 6.68547 8.48787C6.74173 8.43161 6.81804 8.4 6.8976 8.4H8.4V6.9C8.4 6.82044 8.43161 6.74413 8.48787 6.68787C8.54413 6.63161 8.62044 6.6 8.7 6.6C8.77956 6.6 8.85587 6.63161 8.91213 6.68787C8.96839 6.74413 9 6.82044 9 6.9V8.4H10.4982C10.5778 8.4 10.6541 8.43161 10.7103 8.48787C10.7666 8.54413 10.7982 8.62044 10.7982 8.7C10.7982 8.77956 10.7666 8.85587 10.7103 8.91213C10.6541 8.96839 10.5778 9 10.4982 9H9Z" fill="#00355E"/>
</svg>
