<svg width="78" height="25" viewBox="0 0 78 25" fill="none" xmlns="http://www.w3.org/2000/svg">
<path d="M27.4274 14.4377H21.1257V1.375H27.4274C28.3338 1.38682 29.088 1.48134 29.6901 1.65859C30.7156 1.9599 31.5459 2.5123 32.181 3.31579C32.6904 3.96567 33.0378 4.66873 33.223 5.42496C33.4083 6.18119 33.5009 6.90197 33.5009 7.5873C33.5009 9.32426 33.1106 10.7954 32.3299 12.0006C31.2713 13.6253 29.6372 14.4377 27.4274 14.4377ZM29.7 4.70713C29.2303 3.99817 28.3007 3.64369 26.9114 3.64369H24.093V12.169H26.9114C28.3537 12.169 29.3593 11.5339 29.9283 10.2636C30.2392 9.56649 30.3947 8.73641 30.3947 7.7734C30.3947 6.4441 30.1631 5.42201 29.7 4.70713Z" fill="#00255D"/>
<path d="M16.3325 7.25246C16.6862 7.00695 16.9301 6.80725 17.0641 6.65335C17.2838 6.40418 17.3937 6.12752 17.3937 5.82339C17.3937 5.58521 17.3136 5.38001 17.1535 5.20779C16.9934 5.03557 16.7775 4.94946 16.5057 4.94946C16.0924 4.94946 15.8057 5.08504 15.6456 5.3562C15.5637 5.49544 15.5227 5.6475 15.5227 5.8124C15.5227 6.03592 15.5841 6.25028 15.707 6.45548C15.8336 6.66068 16.0421 6.92634 16.3325 7.25246ZM16.0756 11.5067C16.4889 11.5067 16.8445 11.4132 17.1423 11.2264C17.4402 11.0395 17.6692 10.8306 17.8293 10.5998L15.9751 8.37372C15.4501 8.71816 15.1076 8.98199 14.9474 9.16521C14.7017 9.44003 14.5788 9.77531 14.5788 10.171C14.5788 10.5998 14.7371 10.9296 15.0536 11.1604C15.3738 11.3912 15.7145 11.5067 16.0756 11.5067ZM15.4166 7.69766C15.0703 7.30559 14.8376 6.9758 14.7185 6.70831C14.603 6.44082 14.5453 6.18249 14.5453 5.93332C14.5453 5.41299 14.7241 4.98244 15.0815 4.64166C15.4389 4.29722 15.9174 4.125 16.5168 4.125C17.0865 4.125 17.5314 4.2844 17.8516 4.60319C18.1718 4.92198 18.3319 5.30306 18.3319 5.74644C18.3319 6.2631 18.1662 6.71564 17.8349 7.10405C17.6413 7.33124 17.3173 7.59323 16.8631 7.89004L18.3599 9.64889C18.4604 9.35575 18.5293 9.13772 18.5665 8.99482C18.6075 8.84825 18.6484 8.64488 18.6894 8.38472H19.6444C19.5811 8.90138 19.4545 9.39789 19.2646 9.87424C19.0747 10.3469 18.9798 10.5375 18.9798 10.4459L20.4375 12.1882H19.1418L18.371 11.2648C18.0657 11.591 17.7865 11.8291 17.5333 11.9794C17.0902 12.2432 16.5801 12.3751 16.003 12.3751C15.1504 12.3751 14.5304 12.1498 14.1432 11.699C13.756 11.2447 13.5624 10.7335 13.5624 10.1656C13.5624 9.55362 13.7504 9.04245 14.1265 8.63205C14.3573 8.38288 14.7873 8.07142 15.4166 7.69766Z" fill="#00255D"/>
<path d="M75.9748 20.0902V21.9651L75.8961 23.0533H75.5028L75.4241 21.9651V20.0902H75.9748ZM75.6994 23.6302C75.9551 23.6302 76.1255 23.8006 76.1255 24.0563C76.1255 24.312 75.9551 24.4824 75.6994 24.4824C75.4438 24.4824 75.2733 24.312 75.2733 24.0563C75.2733 23.8006 75.4438 23.6302 75.6994 23.6302Z" fill="#ED4421"/>
<path d="M72.7593 19.6311H73.2837V24.4166H72.8248L72.7921 23.8463C72.6019 24.22 72.1889 24.4822 71.6711 24.4822C70.7598 24.4822 70.1764 23.8463 70.1764 22.7778C70.1764 21.7092 70.7598 21.0733 71.6711 21.0733C72.1627 21.0733 72.556 21.3093 72.7593 21.6502V19.6311ZM71.7301 24.0233C72.3528 24.0233 72.7593 23.5579 72.7593 22.8171V22.7384C72.7593 21.9977 72.3528 21.5322 71.7301 21.5322C71.0876 21.5322 70.7008 22.0173 70.7008 22.7778C70.7008 23.5382 71.0876 24.0233 71.7301 24.0233Z" fill="#ED4421"/>
<path d="M68.4587 22.6074C68.4587 22.7581 68.4456 22.8827 68.4324 22.9745H65.961C66.0266 23.6366 66.4264 24.0234 67.0296 24.0234C67.5081 24.0234 67.8359 23.8529 67.9539 23.5382L68.3931 23.7677C68.144 24.2135 67.7376 24.4822 67.0296 24.4822C66.0397 24.4822 65.4431 23.8398 65.4431 22.7778C65.4431 21.7158 66.0003 21.0734 66.9902 21.0734C67.9408 21.0734 68.4587 21.7617 68.4587 22.6074ZM66.9902 21.5323C66.4068 21.5323 66.0462 21.8928 65.9676 22.509H67.9539C67.8818 21.9059 67.5474 21.5323 66.9902 21.5323Z" fill="#ED4421"/>
<path d="M63.4929 21.1389H64.0435L62.68 24.4167H62.1555L60.792 21.1389H61.3885L62.4243 23.8857L63.4929 21.1389Z" fill="#ED4421"/>
<path d="M59.0269 19.6311V23.5382C59.0269 23.8725 59.1121 23.9774 59.3809 23.9774C59.5579 23.9774 59.6693 23.9578 59.8594 23.8856L59.7742 24.3904C59.6366 24.4494 59.4596 24.4822 59.2891 24.4822C58.7581 24.4822 58.5024 24.2003 58.5024 23.6038V19.6311H59.0269Z" fill="#ED4421"/>
<path d="M55.0048 21.0734C55.9947 21.0734 56.5912 21.7158 56.5912 22.7778C56.5912 23.8398 55.9947 24.4822 55.0048 24.4822C54.0149 24.4822 53.4183 23.8398 53.4183 22.7778C53.4183 21.7158 54.0149 21.0734 55.0048 21.0734ZM55.0048 21.5257C54.3427 21.5257 53.9428 21.9977 53.9428 22.7778C53.9428 23.5579 54.3427 24.0299 55.0048 24.0299C55.6669 24.0299 56.0668 23.5579 56.0668 22.7778C56.0668 21.9977 55.6669 21.5257 55.0048 21.5257Z" fill="#ED4421"/>
<path d="M50.3613 24.4822C49.7582 24.4822 49.201 24.2462 48.9519 23.7415L49.378 23.4465C49.5354 23.8464 49.9418 24.0234 50.4138 24.0234C50.9513 24.0234 51.207 23.807 51.207 23.5382C51.207 23.2957 51.0038 23.1515 50.3482 23.0335C49.4174 22.863 49.0765 22.6074 49.0765 22.0567C49.0765 21.5257 49.5681 21.0734 50.3679 21.0734C51.0693 21.0734 51.4823 21.3225 51.6659 21.86L51.2201 22.1223C51.0759 21.6896 50.7809 21.5323 50.3679 21.5323C49.9287 21.5323 49.6009 21.7683 49.6009 22.0108C49.6009 22.2927 49.8172 22.4369 50.4859 22.5484C51.4037 22.6991 51.7315 22.9745 51.7315 23.512C51.7315 24.0824 51.2005 24.4822 50.3613 24.4822Z" fill="#ED4421"/>
<path d="M44.2539 23.748L44.4375 24.1872C44.2342 24.3708 43.9524 24.4822 43.5918 24.4822C43.1067 24.4822 42.6871 24.2397 42.6806 23.6038V21.5912H42.025V21.1389H42.6806V20.3522L43.205 20.208V21.1389H44.4178V21.5912H43.205V23.512C43.205 23.8332 43.4082 23.9906 43.6967 23.9906C43.9327 23.9906 44.1031 23.8988 44.2539 23.748Z" fill="#ED4421"/>
<path d="M40.0349 20.5096C39.7989 20.5096 39.6416 20.3522 39.6416 20.1162C39.6416 19.8802 39.7989 19.7229 40.0349 19.7229C40.2709 19.7229 40.4283 19.8802 40.4283 20.1162C40.4283 20.3522 40.2709 20.5096 40.0349 20.5096ZM40.2972 21.1389V24.4167H39.7727V21.1389H40.2972Z" fill="#ED4421"/>
<path d="M34.7281 21.0734C34.8396 21.0734 34.9904 21.0865 35.0887 21.1389L34.9838 21.6503C34.8855 21.5978 34.7413 21.565 34.5708 21.565C34.1775 21.565 33.7055 21.9125 33.7055 22.6467V24.4167H33.181V21.1389H33.6071L33.6793 21.6765C33.8628 21.2766 34.2168 21.0734 34.7281 21.0734Z" fill="#ED4421"/>
<path d="M31.2657 22.6074C31.2657 22.7581 31.2526 22.8827 31.2394 22.9745H28.768C28.8336 23.6366 29.2335 24.0234 29.8366 24.0234C30.3151 24.0234 30.6429 23.8529 30.7609 23.5382L31.2001 23.7677C30.951 24.2135 30.5446 24.4822 29.8366 24.4822C28.8467 24.4822 28.2501 23.8398 28.2501 22.7778C28.2501 21.7158 28.8073 21.0734 29.7972 21.0734C30.7478 21.0734 31.2657 21.7617 31.2657 22.6074ZM29.7972 21.5323C29.2138 21.5323 28.8532 21.8928 28.7746 22.509H30.7609C30.6888 21.9059 30.3544 21.5323 29.7972 21.5323Z" fill="#ED4421"/>
<path d="M25.7925 19.6311H26.3169V24.4166H25.858L25.8253 23.8463C25.6351 24.22 25.2221 24.4822 24.7043 24.4822C23.793 24.4822 23.2096 23.8463 23.2096 22.7778C23.2096 21.7092 23.793 21.0733 24.7043 21.0733C25.1959 21.0733 25.5893 21.3093 25.7925 21.6502V19.6311ZM24.7633 24.0233C25.386 24.0233 25.7925 23.5579 25.7925 22.8171V22.7384C25.7925 21.9977 25.386 21.5322 24.7633 21.5322C24.1208 21.5322 23.734 22.0173 23.734 22.7778C23.734 23.5382 24.1208 24.0233 24.7633 24.0233Z" fill="#ED4421"/>
<path d="M21.01 20.5096C20.774 20.5096 20.6167 20.3522 20.6167 20.1162C20.6167 19.8802 20.774 19.7229 21.01 19.7229C21.246 19.7229 21.4034 19.8802 21.4034 20.1162C21.4034 20.3522 21.246 20.5096 21.01 20.5096ZM21.2723 21.1389V24.4167H20.7478V21.1389H21.2723Z" fill="#ED4421"/>
<path d="M17.4876 24.4822C16.8845 24.4822 16.3272 24.2462 16.0781 23.7415L16.5042 23.4465C16.6616 23.8464 17.068 24.0234 17.54 24.0234C18.0776 24.0234 18.3332 23.807 18.3332 23.5382C18.3332 23.2957 18.13 23.1515 17.4745 23.0335C16.5436 22.863 16.2027 22.6074 16.2027 22.0567C16.2027 21.5257 16.6943 21.0734 17.4941 21.0734C18.1956 21.0734 18.6086 21.3225 18.7921 21.86L18.3463 22.1223C18.2021 21.6896 17.9071 21.5323 17.4941 21.5323C17.0549 21.5323 16.7271 21.7683 16.7271 22.0108C16.7271 22.2927 16.9435 22.4369 17.6121 22.5484C18.5299 22.6991 18.8577 22.9745 18.8577 23.512C18.8577 24.0824 18.3267 24.4822 17.4876 24.4822Z" fill="#ED4421"/>
<path d="M12.9892 21.0734C13.6907 21.0734 14.2676 21.4733 14.2676 22.3189V24.4167H13.7431V22.5025C13.7431 21.7748 13.3891 21.5323 12.9368 21.5323C12.4582 21.5323 11.9207 21.8338 11.9207 22.6729V24.4167H11.3962V21.1389H11.8551L11.8879 21.6503C12.1174 21.2373 12.5369 21.0734 12.9892 21.0734Z" fill="#ED4421"/>
<path d="M7.87196 21.0734C8.86185 21.0734 9.4584 21.7158 9.4584 22.7778C9.4584 23.8398 8.86185 24.4822 7.87196 24.4822C6.88208 24.4822 6.28552 23.8398 6.28552 22.7778C6.28552 21.7158 6.88208 21.0734 7.87196 21.0734ZM7.87196 21.5257C7.20985 21.5257 6.80996 21.9977 6.80996 22.7778C6.80996 23.5579 7.20985 24.0299 7.87196 24.0299C8.53407 24.0299 8.93396 23.5579 8.93396 22.7778C8.93396 21.9977 8.53407 21.5257 7.87196 21.5257Z" fill="#ED4421"/>
<path d="M4.66371 23.3089C4.38838 24.0496 3.73282 24.4823 2.91993 24.4823C1.68749 24.4823 0.91394 23.6235 0.91394 22.2534C0.91394 20.8833 1.70061 20.0245 2.90682 20.0245C3.74593 20.0245 4.30971 20.3785 4.58504 21.0341L4.06715 21.2766C3.87704 20.7784 3.52304 20.5162 2.94616 20.5162C2.06116 20.5162 1.46461 21.1586 1.46461 22.2534C1.46461 23.3416 2.02183 23.9906 2.91993 23.9906C3.49682 23.9906 3.94915 23.6956 4.13926 23.1122L4.66371 23.3089Z" fill="#ED4421"/>
<path d="M71.7091 13.0837C72.4069 13.0837 72.9735 13.0069 73.4088 12.8533C74.2346 12.5588 74.6476 12.0114 74.6476 11.2112C74.6476 10.7439 74.4427 10.3821 74.033 10.1261C73.6233 9.8764 72.9799 9.65553 72.1028 9.46348L70.6048 9.12738C69.1323 8.79448 68.1144 8.43277 67.5511 8.04225C66.5972 7.38926 66.1202 6.36816 66.1202 4.97895C66.1202 3.71138 66.5812 2.65826 67.503 1.81962C68.4249 0.980969 69.7789 0.561646 71.565 0.561646C73.0567 0.561646 74.3275 0.958563 75.3774 1.7524C76.4337 2.53983 76.9874 3.68577 77.0387 5.19021H74.1962C74.145 4.33876 73.7737 3.73378 73.0823 3.37528C72.6214 3.13841 72.0484 3.01997 71.3634 3.01997C70.6016 3.01997 69.9934 3.17362 69.5388 3.48091C69.0843 3.7882 68.857 4.21713 68.857 4.76769C68.857 5.27344 69.0811 5.65115 69.5292 5.90082C69.8173 6.06727 70.4319 6.26253 71.373 6.4866L73.8121 7.07237C74.8812 7.32844 75.6879 7.67095 76.232 8.09987C77.0771 8.76567 77.4996 9.72915 77.4996 10.9903C77.4996 12.2835 77.0035 13.359 76.0112 14.2169C75.0253 15.0683 73.6297 15.4941 71.8243 15.4941C69.9806 15.4941 68.5306 15.0747 67.4742 14.2361C66.4179 13.391 65.8898 12.2323 65.8898 10.7599H68.713C68.8026 11.4064 68.9787 11.8898 69.2412 12.2099C69.7213 12.7925 70.5439 13.0837 71.7091 13.0837Z" fill="#ED4421"/>
<path d="M57.5266 15.5229C55.5036 15.5229 53.9576 14.9723 52.8885 13.8712C51.4544 12.5204 50.7374 10.5742 50.7374 8.03269C50.7374 5.43993 51.4544 3.49375 52.8885 2.19417C53.9576 1.09304 55.5036 0.54248 57.5266 0.54248C59.5496 0.54248 61.0957 1.09304 62.1648 2.19417C63.5924 3.49375 64.3062 5.43993 64.3062 8.03269C64.3062 10.5742 63.5924 12.5204 62.1648 13.8712C61.0957 14.9723 59.5496 15.5229 57.5266 15.5229ZM60.3211 11.7202C61.0061 10.8559 61.3486 9.62676 61.3486 8.03269C61.3486 6.44502 61.0029 5.21906 60.3115 4.35481C59.6265 3.48415 58.6982 3.04882 57.5266 3.04882C56.3551 3.04882 55.4204 3.48095 54.7226 4.3452C54.0248 5.20946 53.6759 6.43862 53.6759 8.03269C53.6759 9.62676 54.0248 10.8559 54.7226 11.7202C55.4204 12.5844 56.3551 13.0166 57.5266 13.0166C58.6982 13.0166 59.6297 12.5844 60.3211 11.7202Z" fill="#ED4421"/>
<path d="M44.1588 10.0398H41.1531V15.1293H38.2146V0.974731H44.3796C45.8008 0.974731 46.934 1.33964 47.779 2.06945C48.6241 2.79927 49.0466 3.9292 49.0466 5.45926C49.0466 7.13015 48.6241 8.3113 47.779 9.0027C46.934 9.69411 45.7272 10.0398 44.1588 10.0398ZM45.5416 7.09174C45.9257 6.75244 46.1177 6.21468 46.1177 5.47846C46.1177 4.74224 45.9225 4.21729 45.532 3.9036C45.1478 3.5899 44.6069 3.43306 43.9091 3.43306H41.1531V7.60069H43.9091C44.6069 7.60069 45.151 7.43104 45.5416 7.09174Z" fill="#ED4421"/>
<path d="M6.72782 8.77623H3.52839V14.4377H0.5V0H7.77418C8.81383 0.0195898 9.61201 0.143659 10.1687 0.372206C10.7321 0.600754 11.2084 0.937046 11.5974 1.38108C11.9194 1.74676 12.1742 2.15161 12.362 2.59565C12.5499 3.03969 12.6438 3.54576 12.6438 4.11386C12.6438 4.7995 12.466 5.47535 12.1105 6.1414C11.755 6.80093 11.1681 7.26782 10.3498 7.54208C11.034 7.8098 11.5169 8.1918 11.7986 8.68808C12.087 9.17782 12.2312 9.92877 12.2312 10.9409V11.9106C12.2312 12.5701 12.2581 13.0174 12.3117 13.2525C12.3922 13.6247 12.58 13.899 12.8752 14.0753V14.4377H9.46445C9.37054 14.1177 9.30347 13.8598 9.26322 13.6639C9.18273 13.259 9.13914 12.8444 9.13243 12.4199L9.11231 11.078C9.09889 10.1573 8.9245 9.5435 8.58913 9.23659C8.26047 8.92969 7.64003 8.77623 6.72782 8.77623ZM8.60925 6.1512C9.22633 5.87694 9.53487 5.33496 9.53487 4.52525C9.53487 3.65023 9.23639 3.06254 8.63943 2.76216C8.30406 2.59238 7.80101 2.5075 7.13027 2.5075H3.52839V6.38628H7.03972C7.73729 6.38628 8.26047 6.30792 8.60925 6.1512Z" fill="#00255D"/>
</svg>
