<svg width="29" height="21" viewBox="0 0 29 21" fill="none" xmlns="http://www.w3.org/2000/svg">
<path d="M0.699219 21V0H1.68322V21H0.699219ZM2.16822 20.985V0H2.66822V20.985H2.16822ZM3.65222 20.985V0H4.13622V20.985H3.65222ZM6.10522 20.985V0H6.58922V20.985H6.10522ZM8.07422 20.985V0H9.04322V20.985H8.07422ZM10.5272 20.985V0H11.0112V20.985H10.5272ZM11.5112 20.985V0H11.9992V20.985H11.5112ZM12.4952 20.985V0H12.9792V20.985H12.4952ZM14.4482 20.985V0H15.4322V20.985H14.4482ZM16.9012 20.985V0H17.8852V20.985H16.9012ZM18.8702 20.985V0H19.8542V20.985H18.8702ZM20.8392 20.985V0H21.8232V20.985H20.8392ZM22.3082 20.985V0H23.2922V20.985H22.3082ZM24.7772 20.985V0H26.2462V20.985H24.7772ZM26.7302 20.985V0H27.2302V20.985H26.7302ZM27.7142 21V0H28.6992V21H27.7142Z" fill="black"/>
</svg>
