<svg width="15" height="19" viewBox="0 0 15 19" fill="none" xmlns="http://www.w3.org/2000/svg">
<path d="M14.8171 14.1238C14.0899 13.1711 12.6717 12.6123 12.6717 8.34437C12.6717 3.96371 10.7322 2.20369 8.93465 1.78066C8.76616 1.73823 8.64373 1.68248 8.64373 1.50308V1.36732C8.64475 1.06544 8.52719 0.775236 8.31635 0.559183C8.10551 0.343131 7.81826 0.218512 7.51645 0.212158H7.48857C7.18676 0.218512 6.89951 0.343131 6.68867 0.559183C6.47783 0.775236 6.36027 1.06544 6.36129 1.36732V1.50914C6.36129 1.68248 6.24007 1.7443 6.07037 1.78672C4.26308 2.21339 2.33336 3.96856 2.33336 8.35043C2.33336 12.6183 0.91032 13.1723 0.187888 14.1299C0.0834135 14.2684 0.0196853 14.4334 0.00387686 14.6062C-0.0119316 14.779 0.0208069 14.9528 0.0984078 15.108C0.176009 15.2632 0.295391 15.3936 0.443115 15.4847C0.590839 15.5757 0.761042 15.6237 0.934562 15.6232H14.0899C14.2628 15.6209 14.4316 15.5706 14.5776 15.4779C14.7235 15.3851 14.8408 15.2536 14.9162 15.098C14.9917 14.9424 15.0224 14.7689 15.0049 14.5968C14.9874 14.4248 14.9224 14.261 14.8171 14.1238ZM12.9856 14.3966H2.03882C1.99898 14.3968 1.95993 14.3855 1.9264 14.364C1.89286 14.3425 1.86627 14.3117 1.84986 14.2754C1.83344 14.2391 1.8279 14.1988 1.8339 14.1595C1.8399 14.1201 1.85718 14.0833 1.88366 14.0535C2.29566 13.588 2.62856 13.0582 2.86913 12.485C3.36678 11.1633 3.5963 9.75571 3.54429 8.34437C3.45978 6.91878 3.80112 5.50026 4.5249 4.26917C4.94261 3.62028 5.59343 3.15647 6.3431 2.9734C6.67826 2.90377 6.98335 2.73131 7.21584 2.48006C7.24996 2.43958 7.29235 2.40686 7.34016 2.38412C7.38797 2.36138 7.4401 2.34914 7.49303 2.34822C7.54597 2.34731 7.59849 2.35773 7.64706 2.3788C7.69563 2.39987 7.73913 2.43109 7.77463 2.47036C8.01068 2.72376 8.31861 2.89887 8.65707 2.97219C9.40674 3.15525 10.0576 3.61907 10.4753 4.26796C11.1991 5.49905 11.5404 6.91756 11.4559 8.34315C11.4027 9.75426 11.631 11.1618 12.1274 12.4838C12.3742 13.0662 12.7153 13.6039 13.1371 14.0753C13.1614 14.1037 13.1769 14.1385 13.1819 14.1754C13.1869 14.2124 13.1812 14.2501 13.1653 14.2839C13.1494 14.3177 13.1241 14.3461 13.0925 14.3659C13.0608 14.3857 13.0241 14.3959 12.9868 14.3953L12.9856 14.3966Z" fill="#00255D"/>
<path d="M9.07607 16.5082C8.93594 16.5076 8.79993 16.5556 8.6912 16.644C8.58247 16.7324 8.50773 16.8557 8.4797 16.993C8.44385 17.1801 8.36316 17.3556 8.24455 17.5046C8.14932 17.6072 8.03114 17.6859 7.89968 17.7341C7.76822 17.7824 7.62721 17.7988 7.48818 17.7821C7.34921 17.7977 7.20854 17.7807 7.07727 17.7325C6.946 17.6843 6.82773 17.6063 6.7318 17.5046C6.61319 17.3556 6.5325 17.1801 6.49665 16.993C6.46862 16.8557 6.39388 16.7324 6.28515 16.644C6.17642 16.5556 6.04041 16.5076 5.90028 16.5082C5.80853 16.5083 5.71798 16.529 5.63533 16.5689C5.55267 16.6087 5.48003 16.6666 5.42277 16.7383C5.36552 16.81 5.3251 16.8936 5.30453 16.983C5.28396 17.0725 5.28374 17.1654 5.30391 17.2549C5.39059 17.7623 5.66078 18.2201 6.06309 18.5413C6.46539 18.8625 6.97172 19.0246 7.48575 18.9967C8.00002 19.0256 8.50691 18.864 8.90945 18.5426C9.31199 18.2213 9.58191 17.7628 9.66759 17.2549C9.68729 17.1654 9.68674 17.0727 9.66597 16.9834C9.64521 16.8942 9.60477 16.8108 9.5476 16.7392C9.49043 16.6676 9.41799 16.6097 9.33556 16.5698C9.25314 16.5298 9.16282 16.5088 9.07122 16.5082H9.07607Z" fill="#00255D"/>
</svg>
