<svg width="19" height="16" viewBox="0 0 19 16" fill="none" xmlns="http://www.w3.org/2000/svg">
<path d="M17.566 13.411C17.566 13.8224 17.4026 14.2169 17.1117 14.5077C16.8209 14.7986 16.4264 14.962 16.015 14.962H2.051C1.63965 14.962 1.24515 14.7986 0.954278 14.5077C0.663409 14.2169 0.5 13.8224 0.5 13.411V4.879C0.499869 4.67524 0.53989 4.47344 0.617776 4.28515C0.695662 4.09686 0.809887 3.92576 0.953924 3.78163C1.09796 3.6375 1.26899 3.52317 1.45723 3.44516C1.64547 3.36715 1.84724 3.327 2.051 3.327H5.151L6.706 1H11.36L12.911 3.327H16.011C16.4224 3.327 16.8169 3.49041 17.1077 3.78128C17.3986 4.07215 17.562 4.46665 17.562 4.878L17.566 13.411Z" stroke="#ED4421" stroke-linecap="round" stroke-linejoin="round"/>
<path d="M12.1355 8.75405C12.1355 9.36718 11.9537 9.96653 11.6131 10.4763C11.2725 10.9861 10.7883 11.3834 10.2219 11.6181C9.65542 11.8527 9.03211 11.9141 8.43077 11.7945C7.82943 11.6749 7.27706 11.3796 6.84352 10.9461C6.40997 10.5125 6.11473 9.96017 5.99511 9.35883C5.8755 8.75749 5.93689 8.13418 6.17152 7.56773C6.40615 7.00128 6.80349 6.51713 7.31328 6.1765C7.82307 5.83586 8.42243 5.65405 9.03555 5.65405C9.85772 5.65405 10.6462 5.98066 11.2276 6.56202C11.8089 7.14338 12.1355 7.93188 12.1355 8.75405Z" stroke="#ED4421" stroke-linecap="round" stroke-linejoin="round"/>
</svg>
