<svg width="20" height="22" viewBox="0 0 20 22" fill="none" xmlns="http://www.w3.org/2000/svg">
<path d="M7.72727 3.66667H12.2727C12.2727 3.05888 12.0333 2.47598 11.6071 2.04621C11.1808 1.61644 10.6028 1.375 10 1.375C9.39724 1.375 8.81916 1.61644 8.39294 2.04621C7.96672 2.47598 7.72727 3.05888 7.72727 3.66667ZM6.36364 3.66667C6.36364 2.69421 6.74675 1.76158 7.4287 1.07394C8.11065 0.386308 9.03558 0 10 0C10.9644 0 11.8893 0.386308 12.5713 1.07394C13.2532 1.76158 13.6364 2.69421 13.6364 3.66667H19.3182C19.499 3.66667 19.6724 3.7391 19.8003 3.86803C19.9282 3.99696 20 4.17183 20 4.35417C20 4.5365 19.9282 4.71137 19.8003 4.8403C19.6724 4.96923 19.499 5.04167 19.3182 5.04167H18.1273L17.0209 18.4278C16.9404 19.4015 16.4999 20.3093 15.7868 20.971C15.0737 21.6326 14.14 21.9999 13.1709 22H6.82909C5.85999 21.9999 4.92631 21.6326 4.21319 20.971C3.50006 20.3093 3.05958 19.4015 2.97909 18.4278L1.87273 5.04167H0.681818C0.500989 5.04167 0.327566 4.96923 0.1997 4.8403C0.0718341 4.71137 0 4.5365 0 4.35417C0 4.17183 0.0718341 3.99696 0.1997 3.86803C0.327566 3.7391 0.500989 3.66667 0.681818 3.66667H6.36364ZM4.33818 18.3132C4.39017 18.9433 4.67511 19.5307 5.1365 19.9589C5.59788 20.3871 6.20201 20.6249 6.82909 20.625H13.1709C13.798 20.6249 14.4021 20.3871 14.8635 19.9589C15.3249 19.5307 15.6098 18.9433 15.6618 18.3132L16.76 5.04167H3.24091L4.33818 18.3132ZM7.95455 8.25C8.13538 8.25 8.3088 8.32243 8.43666 8.45136C8.56453 8.5803 8.63636 8.75516 8.63636 8.9375V16.7292C8.63636 16.9115 8.56453 17.0864 8.43666 17.2153C8.3088 17.3442 8.13538 17.4167 7.95455 17.4167C7.77372 17.4167 7.60029 17.3442 7.47243 17.2153C7.34456 17.0864 7.27273 16.9115 7.27273 16.7292V8.9375C7.27273 8.75516 7.34456 8.5803 7.47243 8.45136C7.60029 8.32243 7.77372 8.25 7.95455 8.25ZM12.7273 8.9375C12.7273 8.75516 12.6554 8.5803 12.5276 8.45136C12.3997 8.32243 12.2263 8.25 12.0455 8.25C11.8646 8.25 11.6912 8.32243 11.5633 8.45136C11.4355 8.5803 11.3636 8.75516 11.3636 8.9375V16.7292C11.3636 16.9115 11.4355 17.0864 11.5633 17.2153C11.6912 17.3442 11.8646 17.4167 12.0455 17.4167C12.2263 17.4167 12.3997 17.3442 12.5276 17.2153C12.6554 17.0864 12.7273 16.9115 12.7273 16.7292V8.9375Z" fill="#00255D"/>
</svg>
