<svg width="21" height="22" viewBox="0 0 21 22" fill="none" xmlns="http://www.w3.org/2000/svg">
<path d="M8.79 20.961H7.89C4.642 20.961 3.017 20.961 2.008 19.936C0.999 18.911 1 17.261 1 13.961V8.961C1 5.661 1 4.011 2.01 2.987C3.017 1.96 4.642 1.96 7.89 1.96H10.843C14.092 1.96 15.99 2.016 16.999 3.04C18.009 4.066 17.999 5.66 17.999 8.96V10.147M14.445 1V3M9.445 1V3M4.445 1V3M5.5 14H9.5M5.5 9H13.5" stroke="#00255D" stroke-width="1.5" stroke-linecap="round" stroke-linejoin="round"/>
<path opacity="0.93" d="M19.26 13.879C18.354 12.864 17.811 12.925 17.208 13.106C16.785 13.166 15.337 14.856 14.733 15.396C13.742 16.374 12.746 17.382 12.681 17.514C12.493 17.819 12.319 18.359 12.234 18.963C12.077 19.869 11.851 20.888 12.137 20.976C12.423 21.064 13.224 20.896 14.129 20.763C14.733 20.653 15.155 20.533 15.457 20.352C15.88 20.098 16.664 19.205 18.017 17.876C18.864 16.983 19.682 16.366 19.924 15.763C20.165 14.857 19.804 14.374 19.26 13.879Z" stroke="#00255D" stroke-width="1.5" stroke-linecap="round" stroke-linejoin="round"/>
</svg>
