<svg width="16" height="15" viewBox="0 0 16 15" fill="none" xmlns="http://www.w3.org/2000/svg">
<path d="M1.93939 7.5C1.42503 7.5 0.931742 7.69754 0.568035 8.04918C0.204328 8.40081 0 8.87772 0 9.375C0 9.87228 0.204328 10.3492 0.568035 10.7008C0.931742 11.0525 1.42503 11.25 1.93939 11.25C2.45375 11.25 2.94705 11.0525 3.31075 10.7008C3.67446 10.3492 3.87879 9.87228 3.87879 9.375C3.87879 8.87772 3.67446 8.40081 3.31075 8.04918C2.94705 7.69754 2.45375 7.5 1.93939 7.5ZM2.66667 0.703125C2.66667 0.516644 2.59004 0.337802 2.45365 0.20594C2.31726 0.0740786 2.13228 0 1.93939 0C1.74651 0 1.56152 0.0740786 1.42513 0.20594C1.28874 0.337802 1.21212 0.516644 1.21212 0.703125L1.21212 5.85938C1.21212 6.04586 1.28874 6.2247 1.42513 6.35656C1.56152 6.48842 1.74651 6.5625 1.93939 6.5625C2.13228 6.5625 2.31726 6.48842 2.45365 6.35656C2.59004 6.2247 2.66667 6.04586 2.66667 5.85938L2.66667 0.703125ZM1.93939 12.1875C2.13228 12.1875 2.31726 12.2616 2.45365 12.3934C2.59004 12.5253 2.66667 12.7041 2.66667 12.8906V14.2969C2.66667 14.4834 2.59004 14.6622 2.45365 14.7941C2.31726 14.9259 2.13228 15 1.93939 15C1.74651 15 1.56152 14.9259 1.42513 14.7941C1.28874 14.6622 1.21212 14.4834 1.21212 14.2969L1.21212 12.8906C1.21212 12.7041 1.28874 12.5253 1.42513 12.3934C1.56152 12.2616 1.74651 12.1875 1.93939 12.1875ZM14.7879 12.8906C14.7879 12.7041 14.7113 12.5253 14.5749 12.3934C14.4385 12.2616 14.2535 12.1875 14.0606 12.1875C13.8677 12.1875 13.6827 12.2616 13.5463 12.3934C13.41 12.5253 13.3333 12.7041 13.3333 12.8906V14.2969C13.3333 14.4834 13.41 14.6622 13.5463 14.7941C13.6827 14.9259 13.8677 15 14.0606 15C14.2535 15 14.4385 14.9259 14.5749 14.7941C14.7113 14.6622 14.7879 14.4834 14.7879 14.2969V12.8906ZM14.7879 0.703125C14.7879 0.516644 14.7113 0.337802 14.5749 0.20594C14.4385 0.0740786 14.2535 0 14.0606 0C13.8677 0 13.6827 0.0740786 13.5463 0.20594C13.41 0.337802 13.3333 0.516644 13.3333 0.703125V5.85938C13.3333 6.04586 13.41 6.2247 13.5463 6.35656C13.6827 6.48842 13.8677 6.5625 14.0606 6.5625C14.2535 6.5625 14.4385 6.48842 14.5749 6.35656C14.7113 6.2247 14.7879 6.04586 14.7879 5.85938V0.703125ZM8 8.4375C8.19289 8.4375 8.37787 8.51158 8.51426 8.64344C8.65065 8.7753 8.72727 8.95414 8.72727 9.14062V14.2969C8.72727 14.4834 8.65065 14.6622 8.51426 14.7941C8.37787 14.9259 8.19289 15 8 15C7.80712 15 7.62213 14.9259 7.48574 14.7941C7.34935 14.6622 7.27273 14.4834 7.27273 14.2969V9.14062C7.27273 8.95414 7.34935 8.7753 7.48574 8.64344C7.62213 8.51158 7.80712 8.4375 8 8.4375ZM8.72727 0.703125C8.72727 0.516644 8.65065 0.337802 8.51426 0.20594C8.37787 0.0740786 8.19289 0 8 0C7.80712 0 7.62213 0.0740786 7.48574 0.20594C7.34935 0.337802 7.27273 0.516644 7.27273 0.703125V2.10938C7.27273 2.29586 7.34935 2.4747 7.48574 2.60656C7.62213 2.73842 7.80712 2.8125 8 2.8125C8.19289 2.8125 8.37787 2.73842 8.51426 2.60656C8.65065 2.4747 8.72727 2.29586 8.72727 2.10938V0.703125ZM8 3.75C7.48564 3.75 6.99235 3.94754 6.62864 4.29918C6.26494 4.65081 6.06061 5.12772 6.06061 5.625C6.06061 6.12228 6.26494 6.59919 6.62864 6.95082C6.99235 7.30246 7.48564 7.5 8 7.5C8.51436 7.5 9.00765 7.30246 9.37136 6.95082C9.73507 6.59919 9.93939 6.12228 9.93939 5.625C9.93939 5.12772 9.73507 4.65081 9.37136 4.29918C9.00765 3.94754 8.51436 3.75 8 3.75ZM14.0606 7.5C13.5462 7.5 13.053 7.69754 12.6892 8.04918C12.3255 8.40081 12.1212 8.87772 12.1212 9.375C12.1212 9.87228 12.3255 10.3492 12.6892 10.7008C13.053 11.0525 13.5462 11.25 14.0606 11.25C14.575 11.25 15.0683 11.0525 15.432 10.7008C15.7957 10.3492 16 9.87228 16 9.375C16 8.87772 15.7957 8.40081 15.432 8.04918C15.0683 7.69754 14.575 7.5 14.0606 7.5Z" fill="#00355E"/>
</svg>
