<svg width="12" height="13" viewBox="0 0 12 13" fill="none" xmlns="http://www.w3.org/2000/svg">
<path d="M6.26067 1.1992C6.19672 1.13421 6.12009 1.08301 6.0355 1.04878C5.95092 1.01455 5.86019 0.998008 5.76894 1.00019C5.67769 1.00237 5.58786 1.02323 5.50501 1.06147C5.42217 1.0997 5.34808 1.1545 5.28733 1.22248L1.16933 5.82469C1.06027 5.94659 0.999991 6.10428 1 6.26769V11.3348C1 11.5113 1.07024 11.6804 1.19526 11.8052C1.32029 11.9299 1.48986 12 1.66667 12H3.66667C3.84348 12 4.01305 11.9299 4.13807 11.8052C4.2631 11.6804 4.33333 11.5113 4.33333 11.3348V9.0068C4.33333 8.83039 4.40357 8.6612 4.5286 8.53646C4.65362 8.41172 4.82319 8.34164 5 8.34164H7C7.17681 8.34164 7.34638 8.41172 7.4714 8.53646C7.59643 8.6612 7.66667 8.83039 7.66667 9.0068V11.3348C7.66667 11.5113 7.7369 11.6804 7.86193 11.8052C7.98695 11.9299 8.15652 12 8.33333 12H10.3333C10.5101 12 10.6797 11.9299 10.8047 11.8052C10.9298 11.6804 11 11.5113 11 11.3348V6.28564C10.9998 6.11143 10.9311 5.94425 10.8087 5.82003L6.26067 1.1992Z" stroke="black" stroke-width="0.8"/>
</svg>
