<svg width="19" height="19" viewBox="0 0 19 19" fill="none" xmlns="http://www.w3.org/2000/svg">
<path d="M10.8039 13.9706C10.8039 14.1188 10.745 14.2609 10.6402 14.3657C10.5354 14.4705 10.3933 14.5294 10.2451 14.5294C9.89928 14.5294 9.56762 14.392 9.32309 14.1475C9.07856 13.903 8.94118 13.5713 8.94118 13.2255V9.5C8.94118 9.45059 8.92155 9.40322 8.88662 9.36828C8.85169 9.33335 8.80431 9.31372 8.7549 9.31372C8.6067 9.31372 8.46456 9.25485 8.35976 9.15005C8.25496 9.04525 8.19608 8.90311 8.19608 8.7549C8.19608 8.60669 8.25496 8.46455 8.35976 8.35975C8.46456 8.25495 8.6067 8.19608 8.7549 8.19608C9.10073 8.19608 9.43238 8.33345 9.67692 8.57799C9.92145 8.82252 10.0588 9.15418 10.0588 9.5V13.2255C10.0588 13.2749 10.0785 13.3223 10.1134 13.3572C10.1483 13.3921 10.1957 13.4118 10.2451 13.4118C10.3933 13.4118 10.5354 13.4706 10.6402 13.5754C10.745 13.6802 10.8039 13.8224 10.8039 13.9706ZM9.12745 6.33333C9.31166 6.33333 9.49173 6.27871 9.6449 6.17637C9.79806 6.07403 9.91744 5.92857 9.98793 5.75838C10.0584 5.58819 10.0769 5.40093 10.0409 5.22026C10.005 5.03959 9.91629 4.87363 9.78603 4.74338C9.65578 4.61313 9.48982 4.52442 9.30916 4.48848C9.12849 4.45255 8.94122 4.47099 8.77103 4.54148C8.60085 4.61198 8.45539 4.73135 8.35305 4.88452C8.2507 5.03768 8.19608 5.21775 8.19608 5.40196C8.19608 5.64897 8.29421 5.88587 8.46887 6.06054C8.64354 6.23521 8.88044 6.33333 9.12745 6.33333ZM19 9.5C19 11.3789 18.4428 13.2156 17.399 14.7779C16.3551 16.3402 14.8714 17.5578 13.1355 18.2769C11.3996 18.9959 9.48946 19.184 7.64664 18.8175C5.80383 18.4509 4.11109 17.5461 2.78249 16.2175C1.45389 14.8889 0.549104 13.1962 0.182544 11.3534C-0.184015 9.51054 0.00411604 7.6004 0.723148 5.86451C1.44218 4.12861 2.65982 2.64491 4.22209 1.60104C5.78435 0.557165 7.62108 0 9.5 0C12.0187 0.0029579 14.4333 1.0048 16.2142 2.78575C17.9952 4.56671 18.997 6.98135 19 9.5ZM17.8824 9.5C17.8824 7.84213 17.3907 6.22148 16.4697 4.84301C15.5486 3.46454 14.2395 2.39016 12.7078 1.75572C11.1761 1.12127 9.4907 0.955276 7.86469 1.27871C6.23867 1.60215 4.74508 2.40049 3.57278 3.57278C2.40049 4.74507 1.60215 6.23867 1.27872 7.86468C0.955281 9.4907 1.12128 11.1761 1.75572 12.7078C2.39016 14.2395 3.46455 15.5486 4.84302 16.4697C6.22149 17.3907 7.84213 17.8823 9.5 17.8823C11.7224 17.8799 13.853 16.996 15.4245 15.4245C16.996 13.853 17.8799 11.7224 17.8824 9.5Z" fill="black"/>
</svg>
