<svg width="13" height="13" viewBox="0 0 13 13" fill="none" xmlns="http://www.w3.org/2000/svg">
<path d="M1.88933 13C1.56578 13 1.29037 12.8864 1.06311 12.6591C0.835852 12.4319 0.722222 12.1567 0.722222 11.8336V3.80106C0.515185 3.71535 0.343056 3.57644 0.205833 3.38433C0.0686112 3.19174 0 2.97098 0 2.72206V1.16639C0 0.843796 0.11363 0.56863 0.340889 0.340889C0.568148 0.11363 0.843556 0 1.16711 0H11.8336C12.1562 0 12.4314 0.11363 12.6591 0.340889C12.8864 0.568148 13 0.843556 13 1.16711V2.72206C13 2.97098 12.9314 3.1915 12.7942 3.38361C12.6574 3.5762 12.4853 3.71535 12.2778 3.80106V11.8336C12.2778 12.1562 12.1641 12.4314 11.9369 12.6591C11.7096 12.8864 11.4345 13 11.1114 13H1.88933ZM1.44444 3.88917V11.7643C1.44444 11.9121 1.49765 12.0346 1.60406 12.1319C1.71046 12.2291 1.84263 12.2778 2.00056 12.2778H11.1121C11.2416 12.2778 11.348 12.2361 11.4313 12.1528C11.5146 12.0695 11.5563 11.9631 11.5563 11.8336V3.88917H1.44444ZM1.16639 3.16694H11.8336C11.9631 3.16694 12.0695 3.1253 12.1528 3.042C12.2361 2.9587 12.2778 2.85206 12.2778 2.72206V1.16711C12.2778 1.03711 12.2361 0.930463 12.1528 0.847167C12.0695 0.76387 11.9629 0.722222 11.8329 0.722222H1.16711C1.03711 0.722222 0.930463 0.76387 0.847167 0.847167C0.76387 0.930463 0.722222 1.03711 0.722222 1.16711V2.72206C0.722222 2.85206 0.76387 2.95846 0.847167 3.04128C0.930463 3.12457 1.03711 3.16622 1.16711 3.16622M4.61139 7.12544H8.38861V6.5H4.61139V7.12544Z" fill="black"/>
</svg>
