<svg width="10" height="13" viewBox="0 0 10 13" fill="none" xmlns="http://www.w3.org/2000/svg">
<path d="M4.666 9.33201C4.8969 9.33221 5.12266 9.26391 5.31473 9.13575C5.50679 9.0076 5.65652 8.82535 5.74498 8.61207C5.83343 8.39878 5.85662 8.16406 5.81162 7.93759C5.76663 7.71112 5.65546 7.50309 5.49219 7.33982C5.32893 7.17655 5.12089 7.06538 4.89442 7.02039C4.66796 6.97539 4.43323 6.99858 4.21995 7.08704C4.00666 7.17549 3.82441 7.32522 3.69626 7.51729C3.5681 7.70935 3.4998 7.93512 3.5 8.16601C3.50105 8.47493 3.62424 8.77089 3.84268 8.98933C4.06112 9.20777 4.35708 9.33096 4.666 9.33201ZM8.166 4.08301H7.583V2.91601C7.583 2.14251 7.27573 1.40068 6.72878 0.853735C6.18183 0.306785 5.44 -0.000488281 4.6665 -0.000488281C3.893 -0.000488281 3.15117 0.306785 2.60422 0.853735C2.05727 1.40068 1.75 2.14251 1.75 2.91601V4.08301H1.167C0.857908 4.0838 0.561688 4.20687 0.343033 4.42534C0.124378 4.64381 0.00105572 4.93992 0 5.24901V11.082C0.000791974 11.3913 0.123998 11.6876 0.342681 11.9063C0.561365 12.125 0.857736 12.2482 1.167 12.249H8.167C8.47626 12.2482 8.77264 12.125 8.99132 11.9063C9.21 11.6876 9.33321 11.3913 9.334 11.082V5.24901C9.33294 4.93975 9.20948 4.64348 8.99061 4.42499C8.77174 4.20649 8.47527 4.08354 8.166 4.08301ZM2.858 2.91601C2.858 2.67858 2.90476 2.44348 2.99563 2.22412C3.08649 2.00476 3.21966 1.80545 3.38755 1.63756C3.55544 1.46967 3.75475 1.3365 3.97411 1.24564C4.19347 1.15478 4.42857 1.10801 4.666 1.10801C4.90343 1.10801 5.13854 1.15478 5.35789 1.24564C5.57725 1.3365 5.77656 1.46967 5.94445 1.63756C6.11234 1.80545 6.24551 2.00476 6.33637 2.22412C6.42723 2.44348 6.474 2.67858 6.474 2.91601V4.08301H2.858V2.91601ZM8.166 11.082H1.166V5.24901H8.166V11.082Z" fill="#999999"/>
</svg>
