<svg width="179" height="56" viewBox="0 0 179 56" fill="none" xmlns="http://www.w3.org/2000/svg">
<path d="M62.7674 34H48V1H62.7674C64.8915 1.02985 66.6589 1.26866 68.0698 1.71642C70.4729 2.47761 72.4186 3.87313 73.907 5.90299C75.1008 7.54478 75.9147 9.3209 76.3488 11.2313C76.7829 13.1418 77 14.9627 77 16.694C77 21.0821 76.0853 24.7985 74.2558 27.8433C71.7752 31.9478 67.9457 34 62.7674 34ZM68.093 9.41791C66.9922 7.62687 64.814 6.73134 61.5581 6.73134H54.9535V28.2687H61.5581C64.938 28.2687 67.2946 26.6642 68.6279 23.4552C69.3566 21.694 69.7209 19.597 69.7209 17.1642C69.7209 13.806 69.1783 11.2239 68.093 9.41791Z" fill="#00255D"/>
<path d="M36.4468 16.8235C37.27 16.2878 37.8375 15.8521 38.1495 15.5163C38.6607 14.9727 38.9163 14.3691 38.9163 13.7055C38.9163 13.1859 38.73 12.7382 38.3574 12.3624C37.9848 11.9867 37.4823 11.7988 36.8497 11.7988C35.8879 11.7988 35.2207 12.0946 34.8481 12.6862C34.6575 12.99 34.5621 13.3218 34.5621 13.6815C34.5621 14.1692 34.7051 14.6369 34.9911 15.0846C35.2857 15.5323 35.7709 16.1119 36.4468 16.8235ZM35.8489 26.1053C36.8107 26.1053 37.6382 25.9014 38.3314 25.4937C39.0246 25.0859 39.5575 24.6302 39.9301 24.1266L35.6149 19.2698C34.3932 20.0213 33.596 20.5969 33.2234 20.9967C32.6515 21.5963 32.3656 22.3278 32.3656 23.1912C32.3656 24.1266 32.7338 24.8461 33.4703 25.3498C34.2155 25.8534 35.0084 26.1053 35.8489 26.1053ZM34.3152 17.7948C33.5093 16.9394 32.9678 16.2199 32.6905 15.6362C32.4219 15.0526 32.2876 14.489 32.2876 13.9454C32.2876 12.8101 32.7035 11.8708 33.5353 11.1272C34.3672 10.3757 35.4806 10 36.8757 10C38.2015 10 39.2369 10.3478 39.9821 11.0433C40.7273 11.7388 41.0999 12.5703 41.0999 13.5376C41.0999 14.6649 40.7143 15.6522 39.9431 16.4997C39.4926 16.9953 38.7387 17.567 37.6816 18.2145L41.1649 22.052C41.3989 21.4124 41.5592 20.9367 41.6458 20.6249C41.7411 20.3051 41.8364 19.8614 41.9318 19.2938H44.1543C44.007 20.4211 43.7124 21.5043 43.2705 22.5436C42.8286 23.575 42.6076 23.9907 42.6076 23.7908L46 27.5923H42.9846L41.1909 25.5776C40.4804 26.2891 39.8305 26.8088 39.2413 27.1366C38.2101 27.7122 37.023 28 35.6799 28C33.6956 28 32.2529 27.5083 31.3517 26.525C30.4506 25.5336 30 24.4184 30 23.1792C30 21.8441 30.4376 20.7288 31.3128 19.8334C31.85 19.2898 32.8508 18.6103 34.3152 17.7948Z" fill="#00255D"/>
<path d="M175.063 45.8127V50.1614L174.881 52.6854H173.968L173.786 50.1614V45.8127H175.063ZM174.424 54.0235C175.017 54.0235 175.413 54.4188 175.413 55.0118C175.413 55.6048 175.017 56.0001 174.424 56.0001C173.831 56.0001 173.436 55.6048 173.436 55.0118C173.436 54.4188 173.831 54.0235 174.424 54.0235Z" fill="#ED4421"/>
<path d="M167.6 44.7483H168.816V55.848H167.752L167.676 54.5252C167.235 55.3918 166.277 56.0001 165.076 56.0001C162.962 56.0001 161.609 54.5252 161.609 52.0467C161.609 49.5683 162.962 48.0934 165.076 48.0934C166.216 48.0934 167.129 48.6408 167.6 49.4315V44.7483ZM165.213 54.9357C166.657 54.9357 167.6 53.8561 167.6 52.138V51.9555C167.6 50.2373 166.657 49.1578 165.213 49.1578C163.723 49.1578 162.826 50.2829 162.826 52.0467C162.826 53.8105 163.723 54.9357 165.213 54.9357Z" fill="#ED4421"/>
<path d="M157.625 51.6513C157.625 52.001 157.595 52.2899 157.565 52.5027H151.832C151.984 54.0384 152.912 54.9355 154.311 54.9355C155.421 54.9355 156.181 54.5402 156.455 53.8104L157.473 54.3426C156.896 55.3765 155.953 55.9999 154.311 55.9999C152.015 55.9999 150.631 54.5098 150.631 52.0466C150.631 49.5834 151.924 48.0933 154.219 48.0933C156.424 48.0933 157.625 49.6898 157.625 51.6513ZM154.219 49.1576C152.866 49.1576 152.03 49.9939 151.848 51.4232H156.455C156.287 50.0243 155.512 49.1576 154.219 49.1576Z" fill="#ED4421"/>
<path d="M146.105 48.2455H147.383L144.22 55.848H143.003L139.841 48.2455H141.224L143.627 54.6164L146.105 48.2455Z" fill="#ED4421"/>
<path d="M135.749 44.7483V53.8105C135.749 54.586 135.947 54.8293 136.57 54.8293C136.98 54.8293 137.239 54.7836 137.68 54.6164L137.482 55.7872C137.163 55.924 136.752 56.0001 136.357 56.0001C135.125 56.0001 134.532 55.3462 134.532 53.9626V44.7483H135.749Z" fill="#ED4421"/>
<path d="M126.422 48.0933C128.718 48.0933 130.102 49.5834 130.102 52.0466C130.102 54.5098 128.718 55.9999 126.422 55.9999C124.126 55.9999 122.743 54.5098 122.743 52.0466C122.743 49.5834 124.126 48.0933 126.422 48.0933ZM126.422 49.1424C124.887 49.1424 123.959 50.2372 123.959 52.0466C123.959 53.856 124.887 54.9508 126.422 54.9508C127.958 54.9508 128.886 53.856 128.886 52.0466C128.886 50.2372 127.958 49.1424 126.422 49.1424Z" fill="#ED4421"/>
<path d="M115.652 55.9999C114.254 55.9999 112.961 55.4525 112.383 54.2817L113.372 53.5975C113.737 54.525 114.679 54.9355 115.774 54.9355C117.021 54.9355 117.614 54.4338 117.614 53.8104C117.614 53.2478 117.143 52.9133 115.622 52.6396C113.463 52.2442 112.672 51.6513 112.672 50.374C112.672 49.1424 113.813 48.0933 115.668 48.0933C117.295 48.0933 118.252 48.6711 118.678 49.9179L117.644 50.5261C117.31 49.5225 116.626 49.1576 115.668 49.1576C114.649 49.1576 113.889 49.705 113.889 50.2676C113.889 50.9214 114.39 51.2559 115.941 51.5144C118.07 51.8641 118.83 52.5027 118.83 53.7496C118.83 55.0724 117.599 55.9999 115.652 55.9999Z" fill="#ED4421"/>
<path d="M101.484 54.297L101.91 55.3157C101.439 55.7415 100.785 56 99.9485 56C98.8233 56 97.8502 55.4374 97.835 53.9625V49.2945H96.3145V48.2454H97.835V46.4208L99.0514 46.0862V48.2454H101.864V49.2945H99.0514V53.7496C99.0514 54.4947 99.5227 54.8596 100.192 54.8596C100.739 54.8596 101.134 54.6467 101.484 54.297Z" fill="#ED4421"/>
<path d="M91.698 46.7857C91.1506 46.7857 90.7856 46.4208 90.7856 45.8734C90.7856 45.326 91.1506 44.9611 91.698 44.9611C92.2453 44.9611 92.6103 45.326 92.6103 45.8734C92.6103 46.4208 92.2453 46.7857 91.698 46.7857ZM92.3061 48.2454V55.848H91.0897V48.2454H92.3061Z" fill="#ED4421"/>
<path d="M79.3894 48.0933C79.6479 48.0933 79.9976 48.1237 80.2257 48.2453L79.9824 49.4313C79.7544 49.3097 79.4198 49.2336 79.0245 49.2336C78.1122 49.2336 77.0174 50.0395 77.0174 51.7425V55.8479H75.801V48.2453H76.7894L76.9566 49.4921C77.3824 48.5646 78.2034 48.0933 79.3894 48.0933Z" fill="#ED4421"/>
<path d="M71.3593 51.6513C71.3593 52.001 71.3289 52.2899 71.2985 52.5027H65.5662C65.7182 54.0384 66.6458 54.9355 68.0446 54.9355C69.1546 54.9355 69.9148 54.5402 70.1885 53.8104L71.2073 54.3426C70.6295 55.3765 69.6868 55.9999 68.0446 55.9999C65.7487 55.9999 64.365 54.5098 64.365 52.0466C64.365 49.5834 65.6574 48.0933 67.9534 48.0933C70.1581 48.0933 71.3593 49.6898 71.3593 51.6513ZM67.9534 49.1576C66.6001 49.1576 65.7639 49.9939 65.5814 51.4232H70.1885C70.0213 50.0243 69.2458 49.1576 67.9534 49.1576Z" fill="#ED4421"/>
<path d="M58.6649 44.7483H59.8813V55.848H58.8169L58.7409 54.5252C58.3 55.3918 57.342 56.0001 56.1408 56.0001C54.0273 56.0001 52.6741 54.5252 52.6741 52.0467C52.6741 49.5683 54.0273 48.0934 56.1408 48.0934C57.2812 48.0934 58.1935 48.6408 58.6649 49.4315V44.7483ZM56.2777 54.9357C57.7222 54.9357 58.6649 53.8561 58.6649 52.138V51.9555C58.6649 50.2373 57.7222 49.1578 56.2777 49.1578C54.7876 49.1578 53.8905 50.2829 53.8905 52.0467C53.8905 53.8105 54.7876 54.9357 56.2777 54.9357Z" fill="#ED4421"/>
<path d="M47.5703 46.7857C47.0229 46.7857 46.658 46.4208 46.658 45.8734C46.658 45.326 47.0229 44.9611 47.5703 44.9611C48.1176 44.9611 48.4826 45.326 48.4826 45.8734C48.4826 46.4208 48.1176 46.7857 47.5703 46.7857ZM48.1785 48.2454V55.848H46.9621V48.2454H48.1785Z" fill="#ED4421"/>
<path d="M39.4017 55.9999C38.0028 55.9999 36.7104 55.4525 36.1326 54.2817L37.1209 53.5975C37.4858 54.525 38.4285 54.9355 39.5233 54.9355C40.7701 54.9355 41.3631 54.4338 41.3631 53.8104C41.3631 53.2478 40.8918 52.9133 39.3713 52.6396C37.2121 52.2442 36.4215 51.6513 36.4215 50.374C36.4215 49.1424 37.5618 48.0933 39.4169 48.0933C41.0438 48.0933 42.0017 48.6711 42.4275 49.9179L41.3935 50.5261C41.059 49.5225 40.3748 49.1576 39.4169 49.1576C38.3981 49.1576 37.6379 49.705 37.6379 50.2676C37.6379 50.9214 38.1396 51.2559 39.6906 51.5144C41.8193 51.8641 42.5795 52.5027 42.5795 53.7496C42.5795 55.0724 41.3479 55.9999 39.4017 55.9999Z" fill="#ED4421"/>
<path d="M28.968 48.0933C30.595 48.0933 31.933 49.0208 31.933 50.9822V55.8479H30.7166V51.408C30.7166 49.7202 29.8955 49.1576 28.8464 49.1576C27.7364 49.1576 26.4896 49.8571 26.4896 51.8033V55.8479H25.2732V48.2453H26.3375L26.4136 49.4313C26.9458 48.4734 27.9189 48.0933 28.968 48.0933Z" fill="#ED4421"/>
<path d="M17.101 48.0933C19.397 48.0933 20.7806 49.5834 20.7806 52.0466C20.7806 54.5098 19.397 55.9999 17.101 55.9999C14.805 55.9999 13.4214 54.5098 13.4214 52.0466C13.4214 49.5834 14.805 48.0933 17.101 48.0933ZM17.101 49.1424C15.5653 49.1424 14.6378 50.2372 14.6378 52.0466C14.6378 53.856 15.5653 54.9508 17.101 54.9508C18.6367 54.9508 19.5642 53.856 19.5642 52.0466C19.5642 50.2372 18.6367 49.1424 17.101 49.1424Z" fill="#ED4421"/>
<path d="M9.65825 53.2783C9.01963 54.9965 7.49912 56 5.61369 56C2.75514 56 0.960938 54.0082 0.960938 50.8303C0.960938 47.6524 2.78555 45.6606 5.58328 45.6606C7.52953 45.6606 8.83717 46.4817 9.47578 48.0022L8.27458 48.5648C7.83363 47.4092 7.01256 46.801 5.67451 46.801C3.62183 46.801 2.23816 48.2911 2.23816 50.8303C2.23816 53.3544 3.5306 54.8597 5.61369 54.8597C6.95174 54.8597 8.00089 54.1754 8.44184 52.8222L9.65825 53.2783Z" fill="#ED4421"/>
<path d="M165.165 29.5632C166.783 29.5632 168.098 29.3851 169.107 29.0287C171.023 28.3457 171.981 27.0761 171.981 25.22C171.981 24.136 171.505 23.2971 170.555 22.7031C169.605 22.124 168.112 21.6118 166.078 21.1663L162.604 20.3867C159.188 19.6146 156.827 18.7757 155.521 17.8699C153.308 16.3553 152.202 13.9869 152.202 10.7648C152.202 7.82473 153.271 5.38212 155.409 3.43694C157.548 1.49176 160.688 0.519165 164.831 0.519165C168.291 0.519165 171.238 1.43979 173.673 3.28103C176.123 5.10742 177.408 7.76534 177.527 11.2548H170.934C170.815 9.27991 169.954 7.8767 168.35 7.04517C167.281 6.49577 165.952 6.22107 164.363 6.22107C162.596 6.22107 161.186 6.57744 160.131 7.29018C159.077 8.00292 158.55 8.99778 158.55 10.2748C158.55 11.4478 159.07 12.3239 160.109 12.903C160.777 13.2891 162.203 13.7419 164.385 14.2616L170.043 15.6203C172.522 16.2143 174.393 17.0087 175.656 18.0035C177.616 19.5478 178.596 21.7825 178.596 24.7077C178.596 27.7072 177.445 30.2017 175.143 32.1915C172.857 34.1663 169.62 35.1538 165.432 35.1538C161.156 35.1538 157.793 34.1812 155.343 32.236C152.892 30.276 151.667 27.5884 151.667 24.1732H158.216C158.424 25.6729 158.832 26.794 159.441 27.5364C160.554 28.8876 162.462 29.5632 165.165 29.5632Z" fill="#ED4421"/>
<path d="M132.268 35.2206C127.576 35.2206 123.99 33.9436 121.51 31.3896C118.184 28.2565 116.521 23.7425 116.521 17.8476C116.521 11.8339 118.184 7.31987 121.51 4.30558C123.99 1.7516 127.576 0.474609 132.268 0.474609C136.96 0.474609 140.546 1.7516 143.026 4.30558C146.337 7.31987 147.993 11.8339 147.993 17.8476C147.993 23.7425 146.337 28.2565 143.026 31.3896C140.546 33.9436 136.96 35.2206 132.268 35.2206ZM138.749 26.4005C140.338 24.3959 141.132 21.5449 141.132 17.8476C141.132 14.1651 140.331 11.3216 138.727 9.31702C137.138 7.29759 134.985 6.28788 132.268 6.28788C129.55 6.28788 127.383 7.29017 125.764 9.29474C124.146 11.2993 123.336 14.1503 123.336 17.8476C123.336 21.5449 124.146 24.3959 125.764 26.4005C127.383 28.405 129.55 29.4073 132.268 29.4073C134.985 29.4073 137.146 28.405 138.749 26.4005Z" fill="#ED4421"/>
<path d="M101.264 22.5026H94.2921V34.3074H87.4766V1.47687H101.776C105.072 1.47687 107.701 2.32324 109.661 4.016C111.621 5.70875 112.601 8.32955 112.601 11.8784C112.601 15.7539 111.621 18.4935 109.661 20.0972C107.701 21.7008 104.902 22.5026 101.264 22.5026ZM104.471 15.6648C105.362 14.8778 105.807 13.6305 105.807 11.9229C105.807 10.2153 105.354 8.99774 104.449 8.27015C103.558 7.54257 102.303 7.17877 100.684 7.17877H94.2921V16.8453H100.684C102.303 16.8453 103.565 16.4518 104.471 15.6648Z" fill="#ED4421"/>
<path d="M13.5878 20.0597H6.60732V33H0V0H15.8707C18.139 0.0447761 19.8805 0.328358 21.0951 0.850746C22.3244 1.37313 23.3634 2.14179 24.2122 3.15672C24.9146 3.99254 25.4707 4.91791 25.8805 5.93284C26.2902 6.94776 26.4951 8.10448 26.4951 9.40298C26.4951 10.9701 26.1073 12.5149 25.3317 14.0373C24.5561 15.5448 23.2756 16.6119 21.4902 17.2388C22.9829 17.8507 24.0366 18.7239 24.6512 19.8582C25.2805 20.9776 25.5951 22.694 25.5951 25.0075V27.2239C25.5951 28.7313 25.6537 29.7537 25.7707 30.291C25.9463 31.1418 26.3561 31.7687 27 32.1716V33H19.5585C19.3537 32.2687 19.2073 31.6791 19.1195 31.2313C18.9439 30.306 18.8488 29.3582 18.8341 28.3881L18.7902 25.3209C18.761 23.2164 18.3805 21.8134 17.6488 21.1119C16.9317 20.4104 15.578 20.0597 13.5878 20.0597ZM17.6927 14.0597C19.039 13.4328 19.7122 12.194 19.7122 10.3433C19.7122 8.34328 19.061 7 17.7585 6.31343C17.0268 5.92537 15.9293 5.73134 14.4659 5.73134H6.60732V14.597H14.2683C15.7902 14.597 16.9317 14.4179 17.6927 14.0597Z" fill="#00255D"/>
</svg>
