<svg width="11" height="12" viewBox="0 0 11 12" fill="none" xmlns="http://www.w3.org/2000/svg">
<path d="M10 11.1249V10.0017C10 9.40458 9.76279 8.83191 9.34056 8.40968C8.91833 7.98745 8.34567 7.75024 7.74854 7.75024H3.25146C2.65434 7.75024 2.08167 7.98745 1.65944 8.40968C1.23721 8.83191 1 9.40458 1 10.0017V11.1266" stroke="#999999" stroke-linecap="round" stroke-linejoin="round"/>
<path d="M7.75219 3.25146C7.75219 3.69676 7.62014 4.13205 7.37275 4.5023C7.12535 4.87255 6.77372 5.16113 6.36232 5.33154C5.95092 5.50194 5.49823 5.54653 5.06149 5.45966C4.62475 5.37279 4.22358 5.15835 3.90871 4.84348C3.59383 4.52861 3.3794 4.12744 3.29253 3.6907C3.20566 3.25396 3.25024 2.80126 3.42065 2.38986C3.59106 1.97846 3.87963 1.62683 4.24988 1.37944C4.62013 1.13205 5.05543 1 5.50073 1C6.09785 1 6.67052 1.23721 7.09275 1.65944C7.51498 2.08167 7.75219 2.65434 7.75219 3.25146Z" stroke="#999999" stroke-linecap="round" stroke-linejoin="round"/>
</svg>
