<svg width="10" height="11" viewBox="0 0 10 11" fill="none" xmlns="http://www.w3.org/2000/svg">
<path d="M5 1.33333C5 0.979711 4.8683 0.640573 4.63388 0.390524C4.39946 0.140476 4.08152 0 3.75 0C3.41848 0 3.10054 0.140476 2.86612 0.390524C2.6317 0.640573 2.5 0.979711 2.5 1.33333C2.5 1.68696 2.6317 2.02609 2.86612 2.27614C3.10054 2.52619 3.41848 2.66667 3.75 2.66667C4.08152 2.66667 4.39946 2.52619 4.63388 2.27614C4.8683 2.02609 5 1.68696 5 1.33333ZM9.53125 1.83333C9.65557 1.83333 9.7748 1.78066 9.86271 1.68689C9.95061 1.59312 10 1.46594 10 1.33333C10 1.20073 9.95061 1.07355 9.86271 0.97978C9.7748 0.886012 9.65557 0.833333 9.53125 0.833333H6.09375C5.96943 0.833333 5.8502 0.886012 5.76229 0.97978C5.67439 1.07355 5.625 1.20073 5.625 1.33333C5.625 1.46594 5.67439 1.59312 5.76229 1.68689C5.8502 1.78066 5.96943 1.83333 6.09375 1.83333H9.53125ZM1.875 1.33333C1.875 1.46594 1.82561 1.59312 1.73771 1.68689C1.6498 1.78066 1.53057 1.83333 1.40625 1.83333H0.46875C0.34443 1.83333 0.225201 1.78066 0.137294 1.68689C0.049386 1.59312 0 1.46594 0 1.33333C0 1.20073 0.049386 1.07355 0.137294 0.97978C0.225201 0.886012 0.34443 0.833333 0.46875 0.833333H1.40625C1.53057 0.833333 1.6498 0.886012 1.73771 0.97978C1.82561 1.07355 1.875 1.20073 1.875 1.33333ZM1.40625 10.1667C1.53057 10.1667 1.6498 10.114 1.73771 10.0202C1.82561 9.92645 1.875 9.79928 1.875 9.66667C1.875 9.53406 1.82561 9.40688 1.73771 9.31311C1.6498 9.21935 1.53057 9.16667 1.40625 9.16667H0.46875C0.34443 9.16667 0.225201 9.21935 0.137294 9.31311C0.049386 9.40688 0 9.53406 0 9.66667C0 9.79928 0.049386 9.92645 0.137294 10.0202C0.225201 10.114 0.34443 10.1667 0.46875 10.1667H1.40625ZM9.53125 10.1667C9.65557 10.1667 9.7748 10.114 9.86271 10.0202C9.95061 9.92645 10 9.79928 10 9.66667C10 9.53406 9.95061 9.40688 9.86271 9.31311C9.7748 9.21935 9.65557 9.16667 9.53125 9.16667H6.09375C5.96943 9.16667 5.8502 9.21935 5.76229 9.31311C5.67439 9.40688 5.625 9.53406 5.625 9.66667C5.625 9.79928 5.67439 9.92645 5.76229 10.0202C5.8502 10.114 5.96943 10.1667 6.09375 10.1667H9.53125ZM4.375 5.5C4.375 5.63261 4.32561 5.75979 4.23771 5.85355C4.1498 5.94732 4.03057 6 3.90625 6H0.46875C0.34443 6 0.225201 5.94732 0.137294 5.85355C0.049386 5.75979 0 5.63261 0 5.5C0 5.36739 0.049386 5.24022 0.137294 5.14645C0.225201 5.05268 0.34443 5 0.46875 5H3.90625C4.03057 5 4.1498 5.05268 4.23771 5.14645C4.32561 5.24022 4.375 5.36739 4.375 5.5ZM9.53125 6C9.65557 6 9.7748 5.94732 9.86271 5.85355C9.95061 5.75979 10 5.63261 10 5.5C10 5.36739 9.95061 5.24022 9.86271 5.14645C9.7748 5.05268 9.65557 5 9.53125 5H8.59375C8.46943 5 8.3502 5.05268 8.26229 5.14645C8.17439 5.24022 8.125 5.36739 8.125 5.5C8.125 5.63261 8.17439 5.75979 8.26229 5.85355C8.3502 5.94732 8.46943 6 8.59375 6H9.53125ZM7.5 5.5C7.5 5.14638 7.3683 4.80724 7.13388 4.55719C6.89946 4.30714 6.58152 4.16667 6.25 4.16667C5.91848 4.16667 5.60054 4.30714 5.36612 4.55719C5.1317 4.80724 5 5.14638 5 5.5C5 5.85362 5.1317 6.19276 5.36612 6.44281C5.60054 6.69286 5.91848 6.83333 6.25 6.83333C6.58152 6.83333 6.89946 6.69286 7.13388 6.44281C7.3683 6.19276 7.5 5.85362 7.5 5.5ZM5 9.66667C5 9.31304 4.8683 8.97391 4.63388 8.72386C4.39946 8.47381 4.08152 8.33333 3.75 8.33333C3.41848 8.33333 3.10054 8.47381 2.86612 8.72386C2.6317 8.97391 2.5 9.31304 2.5 9.66667C2.5 10.0203 2.6317 10.3594 2.86612 10.6095C3.10054 10.8595 3.41848 11 3.75 11C4.08152 11 4.39946 10.8595 4.63388 10.6095C4.8683 10.3594 5 10.0203 5 9.66667Z" fill="#00355E"/>
</svg>
