<svg width="12" height="13" viewBox="0 0 12 13" fill="none" xmlns="http://www.w3.org/2000/svg">
<path d="M1.25923 2.51847H2.51847V3.14809C2.51847 3.84067 3.08513 4.40732 3.7777 4.40732H7.55541C8.24799 4.40732 8.81464 3.84067 8.81464 3.14809V2.51847H10.0739V5.66656H11.3331V2.51847C11.3331 1.82589 10.7665 1.25923 10.0739 1.25923H7.44208C7.17764 0.528879 6.48506 0 5.66656 0C4.84805 0 4.15548 0.528879 3.89104 1.25923H1.25923C0.566656 1.25923 0 1.82589 0 2.51847V11.3331C0 12.0257 0.566656 12.5923 1.25923 12.5923H5.03694V11.3331H1.25923V2.51847ZM5.66656 1.25923C6.01285 1.25923 6.29617 1.54256 6.29617 1.88885C6.29617 2.23514 6.01285 2.51847 5.66656 2.51847C5.32027 2.51847 5.03694 2.23514 5.03694 1.88885C5.03694 1.54256 5.32027 1.25923 5.66656 1.25923Z" fill="#00355E"/>
<path d="M11.8077 7.08313C11.5495 6.82499 11.1214 6.82499 10.8632 7.08313L7.87884 10.0738L6.4559 8.65718C6.19776 8.39903 5.77592 8.39903 5.51148 8.65718C5.25334 8.91532 5.25334 9.34346 5.51148 9.6016L7.43181 11.5156C7.67736 11.7612 8.07402 11.7612 8.31957 11.5156L11.8014 8.02756C12.0658 7.76942 12.0658 7.34128 11.8077 7.08313Z" fill="#00355E"/>
</svg>
