<svg width="13" height="12" viewBox="0 0 13 12" fill="none" xmlns="http://www.w3.org/2000/svg">
<path d="M9.58679 3.12012V0.780031H3.41321V3.12012H2.64152V0H10.3585V3.12012H9.58679ZM10.8331 5.85023C11.0517 5.85023 11.2351 5.77535 11.3833 5.62559C11.5315 5.47582 11.6053 5.29069 11.6048 5.0702C11.6043 4.84971 11.5304 4.66433 11.3833 4.51404C11.2362 4.36375 11.0528 4.28887 10.8331 4.28939C10.6134 4.28991 10.4303 4.36479 10.2836 4.51404C10.137 4.66329 10.0629 4.84867 10.0614 5.0702C10.0598 5.29173 10.1339 5.47686 10.2836 5.62559C10.4333 5.77431 10.616 5.84919 10.8331 5.85023ZM9.58679 11.22V7.68019H3.41321V11.22H9.58679ZM10.3585 12H2.64152V8.87988H0V4.68019C0 4.23817 0.148423 3.86765 0.445269 3.56864C0.742115 3.26963 1.10816 3.11986 1.54339 3.11934H11.4566C11.8939 3.11934 12.2605 3.26911 12.5563 3.56864C12.8521 3.86817 13 4.23843 13 4.67941V8.87988H10.3585V12ZM12.2283 8.09984V4.68019C12.2283 4.45918 12.1545 4.27379 12.0068 4.12402C11.8592 3.97426 11.6758 3.89938 11.4566 3.89938H1.54339C1.32475 3.89938 1.1416 3.97426 0.993945 4.12402C0.846294 4.27379 0.772211 4.45918 0.771697 4.68019V8.09984H2.64152V6.90016H10.3585V8.09984H12.2283Z" fill="#00355E"/>
</svg>
