<svg width="17" height="14" viewBox="0 0 17 14" fill="none" xmlns="http://www.w3.org/2000/svg">
<path d="M12.25 13C12.6478 13 13.0294 12.842 13.3107 12.5607C13.592 12.2794 13.75 11.8978 13.75 11.5C13.75 11.1022 13.592 10.7206 13.3107 10.4393C13.0294 10.158 12.6478 10 12.25 10C11.8522 10 11.4706 10.158 11.1893 10.4393C10.908 10.7206 10.75 11.1022 10.75 11.5C10.75 11.8978 10.908 12.2794 11.1893 12.5607C11.4706 12.842 11.8522 13 12.25 13ZM4.75 13C5.14782 13 5.52936 12.842 5.81066 12.5607C6.09196 12.2794 6.25 11.8978 6.25 11.5C6.25 11.1022 6.09196 10.7206 5.81066 10.4393C5.52936 10.158 5.14782 10 4.75 10C4.35218 10 3.97064 10.158 3.68934 10.4393C3.40804 10.7206 3.25 11.1022 3.25 11.5C3.25 11.8978 3.40804 12.2794 3.68934 12.5607C3.97064 12.842 4.35218 13 4.75 13Z" stroke="#00355E" stroke-width="0.8" stroke-linecap="round" stroke-linejoin="round"/>
<path d="M13.75 6.25H16M16 6.25V7.75C16 9.51775 16 10.4012 15.451 10.951C15.0857 11.3162 14.5728 11.4385 13.75 11.479M16 6.25L15.043 4.4725C14.5255 3.511 14.2668 3.03025 13.822 2.7655C13.378 2.5 12.8327 2.5 11.7407 2.5H10.375M3.25 11.479C2.42725 11.4385 1.915 11.3162 1.549 10.951C1 10.4012 1 9.51775 1 7.75V4.75C1 2.98225 1 2.098 1.549 1.549C2.098 1 2.98225 1 4.75 1H7.225C8.06275 1 8.48125 1 8.82025 1.11025C9.15792 1.21998 9.46483 1.40806 9.71588 1.65911C9.96694 1.91017 10.155 2.21708 10.2647 2.55475C10.375 2.89375 10.375 3.31225 10.375 4.15C10.375 5.065 10.375 5.52325 10.1245 5.833C10.075 5.894 10.0195 5.9495 9.958 5.9995C9.64825 6.25 9.19075 6.25 8.275 6.25H5.5M10.75 11.5H6.25" stroke="#00355E" stroke-width="0.8" stroke-linecap="round" stroke-linejoin="round"/>
<path d="M7 7.75C7 7.75 6.496 7.333 6.05275 6.937C5.74 6.685 5.5 6.46975 5.5 6.25375C5.5 6.0625 5.6875 5.88475 5.992 5.60575C6.424 5.2465 7 4.75 7 4.75" stroke="#00355E" stroke-width="0.8" stroke-linecap="round" stroke-linejoin="round"/>
</svg>
