<svg width="15" height="16" viewBox="0 0 15 16" fill="none" xmlns="http://www.w3.org/2000/svg">
<path d="M7.5 15C6.90922 15 6.34444 14.7725 5.21561 14.3182C2.40544 13.187 1 12.6214 1 11.6701V5.0215M7.5 15C8.09078 15 8.65556 14.7725 9.78439 14.3182C12.5946 13.187 14 12.6214 14 11.6701V5.0215M7.5 15V8.1183M1 5.0215C1 5.4436 1.57922 5.711 2.73694 6.2444L4.84583 7.2174C6.14944 7.818 6.79944 8.119 7.5 8.119C8.20056 8.119 8.85056 7.818 10.1542 7.2174L12.2631 6.2444C13.4208 5.711 14 5.4436 14 5.0215M1 5.0215C1 4.5987 1.57922 4.3313 2.73694 3.7979L4.25 3.1M14 5.0215C14 4.5987 13.4208 4.332 12.2631 3.7986L10.75 3.1M3.16667 8.8064L4.61111 9.4945M7.50289 1V5.9M7.50289 5.9C7.69283 5.9028 7.87989 5.774 8.01856 5.6165L8.94444 4.5434M7.50289 5.9C7.31944 5.8979 7.13383 5.7698 6.98722 5.6165L6.05556 4.5434" stroke="#00355E" stroke-width="0.8" stroke-linecap="round" stroke-linejoin="round"/>
</svg>
