<svg width="21" height="22" viewBox="0 0 21 22" fill="none" xmlns="http://www.w3.org/2000/svg">
<path d="M10.5 21C9.63656 21 8.81111 20.675 7.16128 20.026C3.05411 18.41 1 17.602 1 16.243V6.745M10.5 21C11.3634 21 12.1889 20.675 13.8387 20.026C17.9459 18.41 20 17.602 20 16.243V6.745M10.5 21V11.169M1 6.745C1 7.348 1.84656 7.73 3.53861 8.492L6.62083 9.882C8.52611 10.74 9.47611 11.17 10.5 11.17C11.5239 11.17 12.4739 10.74 14.3792 9.882L17.4614 8.492C19.1534 7.73 20 7.348 20 6.745M1 6.745C1 6.141 1.84656 5.759 3.53861 4.997L5.75 4M20 6.745C20 6.141 19.1534 5.76 17.4614 4.998L15.25 4M4.16667 12.152L6.27778 13.135M10.5042 1V8M10.5042 8C10.7818 8.004 11.0552 7.82 11.2579 7.595L12.6111 6.062M10.5042 8C10.2361 7.997 9.96483 7.814 9.75056 7.595L8.38889 6.062" stroke="#00355E" stroke-width="1.5" stroke-linecap="round" stroke-linejoin="round"/>
</svg>
