<svg width="10" height="12" viewBox="0 0 10 12" fill="none" xmlns="http://www.w3.org/2000/svg">
<path d="M2.14282 6.85715H5.57139V7.71429H2.14282V6.85715ZM2.14282 4.71429H7.28568V5.57144H2.14282V4.71429ZM2.14282 9.00001H4.28568V9.85715H2.14282V9.00001Z" fill="#00355E"/>
<path d="M8.57143 1.28571H7.28571V0.857143C7.28571 0.629814 7.19541 0.411797 7.03466 0.251051C6.87392 0.0903058 6.6559 0 6.42857 0H3C2.77267 0 2.55465 0.0903058 2.39391 0.251051C2.23316 0.411797 2.14286 0.629814 2.14286 0.857143V1.28571H0.857143C0.629814 1.28571 0.411797 1.37602 0.251051 1.53677C0.0903058 1.69751 0 1.91553 0 2.14286V11.1429C0 11.3702 0.0903058 11.5882 0.251051 11.7489C0.411797 11.9097 0.629814 12 0.857143 12H8.57143C8.79876 12 9.01677 11.9097 9.17752 11.7489C9.33827 11.5882 9.42857 11.3702 9.42857 11.1429V2.14286C9.42857 1.91553 9.33827 1.69751 9.17752 1.53677C9.01677 1.37602 8.79876 1.28571 8.57143 1.28571ZM3 0.857143H6.42857V2.57143H3V0.857143ZM8.57143 11.1429H0.857143V2.14286H2.14286V3.42857H7.28571V2.14286H8.57143V11.1429Z" fill="#00355E"/>
</svg>
