<svg width="15" height="15" viewBox="0 0 15 15" fill="none" xmlns="http://www.w3.org/2000/svg">
<path d="M1.17253 8.26074C1.05895 8.02322 1 7.76328 1 7.5C1 7.23672 1.05895 6.97678 1.17253 6.73926C1.27128 6.53189 1.44057 6.33298 1.77914 5.93515C1.91457 5.77644 1.98229 5.69744 2.03872 5.6128C2.16854 5.41917 2.25869 5.20172 2.30393 4.97303C2.32368 4.87287 2.33215 4.76918 2.34837 4.56181C2.38999 4.04125 2.41044 3.78097 2.48733 3.56301C2.57514 3.31485 2.71739 3.0895 2.90364 2.90348C3.0899 2.71747 3.31544 2.57552 3.56372 2.48803C3.78097 2.41115 4.04125 2.38999 4.56251 2.34908C4.76989 2.33215 4.87287 2.32368 4.97303 2.30393C5.20197 2.25878 5.41966 2.16863 5.6135 2.03872C5.69815 1.98229 5.77715 1.91528 5.93515 1.77985C6.33297 1.44127 6.53189 1.27199 6.73927 1.17253C6.97678 1.05895 7.23672 1 7.5 1C7.76328 1 8.02322 1.05895 8.26074 1.17253C8.46882 1.27128 8.66773 1.44057 9.06485 1.77985C9.22356 1.91528 9.30256 1.98229 9.3872 2.03872C9.58104 2.16863 9.79874 2.25878 10.0277 2.30393C10.1271 2.32368 10.2308 2.33215 10.4382 2.34908C10.9595 2.38999 11.2197 2.41115 11.437 2.48803C11.6851 2.5756 11.9105 2.7176 12.0967 2.90361C12.2828 3.08962 12.4249 3.31492 12.5127 3.56301M2.48733 11.437C2.57506 11.6851 2.7172 11.9104 2.90334 12.0964C3.08947 12.2824 3.31487 12.4244 3.56301 12.512C3.78026 12.5896 4.04054 12.61 4.56181 12.6509C4.76918 12.6678 4.87217 12.6763 4.97233 12.6961C5.20126 12.7412 5.41896 12.8314 5.6128 12.9613C5.69744 13.0177 5.77644 13.0847 5.93444 13.2201C6.33227 13.5587 6.53118 13.728 6.73856 13.8275C6.97608 13.941 7.23602 14 7.49929 14C7.76257 14 8.02251 13.941 8.26003 13.8275C8.46811 13.7287 8.66703 13.5594 9.06415 13.2201C9.16669 13.1279 9.27431 13.0415 9.3865 12.9613C9.58034 12.8314 9.79803 12.7412 10.027 12.6961C10.1264 12.6763 10.2301 12.6678 10.4375 12.6509C10.9588 12.61 11.219 12.5889 11.4363 12.512C11.6844 12.4244 11.9098 12.2824 12.096 12.0964C12.2821 11.9104 12.4242 11.6851 12.512 11.437C12.5889 11.2197 12.6093 10.9588 12.6509 10.4382C12.6671 10.2308 12.6756 10.1271 12.6954 10.027C12.7405 9.79843 12.8308 9.58047 12.9606 9.3872C13.017 9.30256 13.0847 9.22356 13.2194 9.06485C13.558 8.66703 13.728 8.46811 13.8275 8.26074C13.941 8.02322 14 7.76328 14 7.5C14 7.23672 13.941 6.97678 13.8275 6.73926M5.38355 9.61645L9.61574 5.38426" stroke="black" stroke-width="0.8" stroke-linecap="round"/>
<path d="M9.96855 9.26374C9.96855 9.45081 9.89424 9.63023 9.76196 9.76251C9.62968 9.89479 9.45026 9.9691 9.26319 9.9691C9.07612 9.9691 8.8967 9.89479 8.76442 9.76251C8.63214 9.63023 8.55783 9.45081 8.55783 9.26374C8.55783 9.07667 8.63214 8.89725 8.76442 8.76497C8.8967 8.63269 9.07612 8.55838 9.26319 8.55838C9.45026 8.55838 9.62968 8.63269 9.76196 8.76497C9.89424 8.89725 9.96855 9.07667 9.96855 9.26374ZM6.44173 5.73692C6.44173 5.92399 6.36742 6.10341 6.23514 6.23569C6.10286 6.36797 5.92344 6.44228 5.73637 6.44228C5.5493 6.44228 5.36988 6.36797 5.2376 6.23569C5.10532 6.10341 5.03101 5.92399 5.03101 5.73692C5.03101 5.54985 5.10532 5.37043 5.2376 5.23815C5.36988 5.10587 5.5493 5.03156 5.73637 5.03156C5.92344 5.03156 6.10286 5.10587 6.23514 5.23815C6.36742 5.37043 6.44173 5.54985 6.44173 5.73692Z" fill="black"/>
</svg>
