<svg width="13" height="16" viewBox="0 0 13 16" fill="none" xmlns="http://www.w3.org/2000/svg">
<path d="M4.14286 9.55556L8.85714 4.88889M4.53571 5.27778H4.54357M8.46429 9.16667H8.47214M12 15V2.55556C12 2.143 11.8344 1.74733 11.5397 1.45561C11.245 1.16389 10.8453 1 10.4286 1H2.57143C2.15466 1 1.75496 1.16389 1.46026 1.45561C1.16556 1.74733 1 2.143 1 2.55556V15L3.75 13.4444L6.5 15L9.25 13.4444L12 15ZM4.92857 5.27778C4.92857 5.38092 4.88718 5.47983 4.81351 5.55276C4.73983 5.62569 4.63991 5.66667 4.53571 5.66667C4.43152 5.66667 4.3316 5.62569 4.25792 5.55276C4.18425 5.47983 4.14286 5.38092 4.14286 5.27778C4.14286 5.17464 4.18425 5.07572 4.25792 5.00279C4.3316 4.92986 4.43152 4.88889 4.53571 4.88889C4.63991 4.88889 4.73983 4.92986 4.81351 5.00279C4.88718 5.07572 4.92857 5.17464 4.92857 5.27778ZM8.85714 9.16667C8.85714 9.26981 8.81575 9.36872 8.74208 9.44165C8.6684 9.51458 8.56848 9.55556 8.46429 9.55556C8.36009 9.55556 8.26017 9.51458 8.18649 9.44165C8.11282 9.36872 8.07143 9.26981 8.07143 9.16667C8.07143 9.06353 8.11282 8.96461 8.18649 8.89168C8.26017 8.81875 8.36009 8.77778 8.46429 8.77778C8.56848 8.77778 8.6684 8.81875 8.74208 8.89168C8.81575 8.96461 8.85714 9.06353 8.85714 9.16667Z" stroke="black" stroke-width="0.8" stroke-linecap="round" stroke-linejoin="round"/>
</svg>
